<?xml version="1.0" encoding="UTF-8"?>
<svg xmlns="http://www.w3.org/2000/svg" xmlns:xlink="http://www.w3.org/1999/xlink" width="2664pt" height="2016pt" viewBox="0 0 2664 2016" version="1.1">
<g id="surface38">
<rect x="0" y="0" width="2664" height="2016" style="fill:rgb(100%,100%,100%);fill-opacity:1;stroke:none;"/>
<path style="fill:none;stroke-width:1;stroke-linecap:butt;stroke-linejoin:miter;stroke:rgb(0%,0%,0%);stroke-opacity:1;stroke-miterlimit:10;" d="M 2200.378906 1975.925781 C 2199.882813 1975.925781 2199.460938 1975.5625 2199.390625 1975.070313 L 2124.976563 1472.777344 C 2124.902344 1472.289063 2124.480469 1471.925781 2123.984375 1471.925781 L 828.015625 1471.925781 C 827.519531 1471.925781 827.097656 1472.289063 827.023438 1472.777344 L 752.609375 1975.070313 C 752.539063 1975.5625 752.117188 1975.925781 751.621094 1975.925781 L 329.882813 1975.925781 C 329.269531 1975.925781 328.804688 1975.382813 328.894531 1974.777344 L 371.21875 1689.070313 C 371.308594 1688.46875 370.839844 1687.925781 370.230469 1687.925781 L 41.074219 1687.925781 C 40.523438 1687.925781 40.074219 1687.476563 40.074219 1686.925781 L 40.074219 1409.074219 C 40.074219 1408.523438 40.523438 1408.074219 41.074219 1408.074219 L 411.984375 1408.074219 C 412.480469 1408.074219 412.902344 1407.710938 412.976563 1407.222656 L 493.886719 861.070313 C 493.976563 860.46875 493.507813 859.925781 492.898438 859.925781 L 41.074219 859.925781 C 40.523438 859.925781 40.074219 859.476563 40.074219 858.925781 L 40.074219 581.074219 C 40.074219 580.523438 40.523438 580.074219 41.074219 580.074219 L 534.652344 580.074219 C 535.148438 580.074219 535.570313 579.710938 535.640625 579.222656 L 615.390625 40.929688 C 615.460938 40.4375 615.882813 40.074219 616.378906 40.074219 L 2335.621094 40.074219 C 2336.117188 40.074219 2336.539063 40.4375 2336.609375 40.929688 L 2623.105469 1974.777344 C 2623.195313 1975.382813 2622.730469 1975.925781 2622.117188 1975.925781 L 2200.378906 1975.925781 "/>
<path style="fill:none;stroke-width:1;stroke-linecap:butt;stroke-linejoin:miter;stroke:rgb(0%,0%,0%);stroke-opacity:1;stroke-miterlimit:10;" d="M 2073.773438 1182.777344 C 2073.863281 1183.382813 2073.394531 1183.925781 2072.785156 1183.925781 L 879.214844 1183.925781 C 878.605469 1183.925781 878.136719 1183.382813 878.226563 1182.777344 L 1004.722656 328.929688 C 1004.796875 328.4375 1005.214844 328.074219 1005.710938 328.074219 L 1946.289063 328.074219 C 1946.785156 328.074219 1947.203125 328.4375 1947.277344 328.929688 L 2073.773438 1182.777344 "/>
</g>
</svg>
