<?xml version="1.0" encoding="UTF-8"?>
<svg xmlns="http://www.w3.org/2000/svg" xmlns:xlink="http://www.w3.org/1999/xlink" width="2664pt" height="2016pt" viewBox="0 0 2664 2016" version="1.1">
<g id="surface58">
<rect x="0" y="0" width="2664" height="2016" style="fill:rgb(100%,100%,100%);fill-opacity:1;stroke:none;"/>
<path style="fill:none;stroke-width:1;stroke-linecap:butt;stroke-linejoin:miter;stroke:rgb(100%,0%,0%);stroke-opacity:1;stroke-dasharray:1,3;stroke-miterlimit:10;" d="M 612 36 L 2340 36 L 2628 1980 L 2196 1980 L 2121.332031 1476 L 830.667969 1476 L 756 1980 L 324 1980 L 366.667969 1692 L 36 1692 L 36 1404 L 409.332031 1404 L 489.332031 864 L 36 864 L 36 576 L 532 576 Z M 612 36 "/>
<path style="fill:none;stroke-width:1;stroke-linecap:butt;stroke-linejoin:miter;stroke:rgb(100%,0%,0%);stroke-opacity:1;stroke-dasharray:1,3;stroke-miterlimit:10;" d="M 1001.332031 324 L 1950.667969 324 L 2078.667969 1188 L 873.332031 1188 Z M 1001.332031 324 "/>
<path style="fill:none;stroke-width:1;stroke-linecap:butt;stroke-linejoin:miter;stroke:rgb(0%,0%,0%);stroke-opacity:1;stroke-miterlimit:10;" d="M 2199.515625 1975.925781 L 2124.847656 1471.925781 L 827.152344 1471.925781 L 752.484375 1975.925781 L 328.722656 1975.925781 L 371.390625 1687.925781 L 40.074219 1687.925781 L 40.074219 1408.074219 L 412.847656 1408.074219 L 494.054688 859.925781 L 40.074219 859.925781 L 40.074219 580.074219 L 535.515625 580.074219 L 615.515625 40.074219 L 2336.484375 40.074219 L 2623.277344 1975.925781 L 2199.515625 1975.925781 "/>
<path style="fill:none;stroke-width:1;stroke-linecap:butt;stroke-linejoin:miter;stroke:rgb(0%,0%,0%);stroke-opacity:1;stroke-miterlimit:10;" d="M 2083.390625 1192.074219 L 868.609375 1192.074219 L 997.816406 319.925781 L 1954.183594 319.925781 L 2083.390625 1192.074219 "/>
</g>
</svg>
